<?xml version="1.0" encoding="utf-8"?>
<svg version="@" id="Calque_1" x="0px" y="0px" style="enable-background:new 0 0 151 132;" viewBox="0 0 151 132" xmlns="http://www.w3.org/2000/svg">
  <style type="text/css">
	.st0{fill:#FF4133;}
	.st1{fill:#FFFFFF;}
</style>
  <g transform="matrix(1, 0, 0, 1, -23.500008, -19.849993)">
    <path class="st0" d="M90.9,108.2v40.1c0,0,0,2.3,2.3,2.3h77.6c0,0,2.3,0,2.3-2.3v-40.1H90.9z M86.9,21.1H27.2c0,0-2.3,0-2.3,2.3 v46.1c0,0,0,2.3,2.3,2.3h59.7V21.1z M173,104.3V63c0,0,0-2.3-2.3-2.3h-36.8V23.4c0,0,0-2.3-2.3-2.3H90.9v50.6v32.5H173z"/>
    <path class="st1" d="M34.9,58.1V36.7c0-0.4,0.2-0.8,0.6-1c0.4-0.2,0.9-0.3,1.5-0.3c0.8,0,1.4,0.1,1.8,0.4c0.4,0.3,0.9,0.9,1.4,1.8 l6.4,12.3V36.7c0-0.4,0.2-0.8,0.6-1c0.4-0.2,0.9-0.3,1.5-0.3c0.6,0,1.1,0.1,1.5,0.3c0.4,0.2,0.6,0.5,0.6,1v21.4 c0,0.4-0.2,0.7-0.6,1c-0.4,0.2-0.9,0.4-1.5,0.4c-1.2,0-2-0.4-2.5-1.4l-7.1-13.2v13.2c0,0.4-0.2,0.7-0.6,1c-0.4,0.2-0.9,0.4-1.5,0.4 c-0.6,0-1.1-0.1-1.5-0.4C35.1,58.8,34.9,58.5,34.9,58.1"/>
    <path class="st1" d="M152.5,139.9v-21.4c0-0.4,0.2-0.8,0.6-1c0.4-0.2,0.9-0.3,1.5-0.3c0.6,0,1.1,0.1,1.5,0.3c0.4,0.2,0.6,0.5,0.6,1 v19h8c0.4,0,0.7,0.2,0.9,0.6c0.2,0.4,0.3,0.8,0.3,1.3c0,0.5-0.1,0.9-0.3,1.3c-0.2,0.4-0.5,0.6-0.9,0.6h-10.4 c-0.5,0-0.9-0.1-1.3-0.4C152.6,140.7,152.5,140.3,152.5,139.9"/>
    <path class="st1" d="M152.5,95.1V73.7c0-0.4,0.2-0.8,0.6-1c0.4-0.2,0.9-0.3,1.5-0.3c0.6,0,1.1,0.1,1.5,0.3c0.4,0.2,0.6,0.5,0.6,1 v21.4c0,0.4-0.2,0.7-0.6,1c-0.4,0.2-0.9,0.4-1.5,0.4c-0.6,0-1.1-0.1-1.5-0.4C152.7,95.9,152.5,95.6,152.5,95.1"/>
    <path class="st1" d="M103.5,95V73.6c0-0.4,0.2-0.7,0.6-1c0.4-0.2,0.8-0.4,1.3-0.4h11.7c0.4,0,0.8,0.2,1,0.6 c0.2,0.4,0.3,0.8,0.3,1.3c0,0.5-0.1,1-0.4,1.4c-0.2,0.4-0.6,0.6-1,0.6h-9.3v6.6h5c0.4,0,0.7,0.2,1,0.5c0.2,0.3,0.4,0.7,0.4,1.2 c0,0.4-0.1,0.8-0.3,1.1c-0.2,0.3-0.6,0.5-1,0.5h-5v6.6h9.3c0.4,0,0.7,0.2,1,0.6c0.2,0.4,0.4,0.8,0.4,1.3c0,0.5-0.1,0.9-0.3,1.3 c-0.2,0.4-0.6,0.6-1,0.6h-11.7c-0.5,0-0.9-0.1-1.3-0.4C103.7,95.7,103.5,95.4,103.5,95"/>
    <path class="st1" d="M131.8,83h3.6c2.4,0,3.5-1.2,3.5-3.5c0-2.3-1.2-3.5-3.5-3.5h-3.6V83z M127.5,95V73.5c0-0.4,0.1-0.7,0.4-0.9 s0.6-0.4,1-0.4h6.5c5.2,0,7.8,2.3,7.8,6.9c0,1.8-0.4,3.3-1.2,4.3c-0.8,1.1-1.8,1.8-3.1,2.2l4.3,8c0.1,0.1,0.2,0.3,0.2,0.5 c0,0.6-0.3,1.1-0.9,1.5c-0.6,0.5-1.2,0.7-1.8,0.7c-0.6,0-1.1-0.3-1.5-1l-4.7-9.1h-2.8V95c0,0.4-0.2,0.7-0.6,1 c-0.4,0.2-0.9,0.4-1.5,0.4c-0.6,0-1.1-0.1-1.5-0.4C127.8,95.7,127.5,95.4,127.5,95"/>
    <path class="st1" d="M60.2,52.1V36.7c0-0.4,0.2-0.8,0.6-1c0.4-0.2,0.9-0.3,1.5-0.3c0.6,0,1.1,0.1,1.5,0.3c0.4,0.2,0.6,0.5,0.6,1 v15.4c0,2.5,1.2,3.8,3.6,3.8s3.6-1.3,3.6-3.8V36.7c0-0.4,0.2-0.8,0.6-1c0.4-0.2,0.9-0.3,1.5-0.3c0.6,0,1.1,0.1,1.5,0.3 c0.4,0.2,0.6,0.5,0.6,1v15.4c0,2.6-0.7,4.5-2.2,5.7c-1.4,1.2-3.4,1.8-5.8,1.8c-2.4,0-4.3-0.6-5.7-1.8C61,56.6,60.2,54.7,60.2,52.1"/>
    <path class="st1" d="M103,58.1V37.5c0-0.7,0.2-1.3,0.6-1.6c0.4-0.4,0.9-0.5,1.5-0.5c0.8,0,1.4,0.1,1.9,0.4c0.4,0.3,0.9,0.9,1.4,1.8 l4.1,7.4l4.1-7.4c0.5-0.9,1-1.6,1.5-1.8c0.4-0.3,1.1-0.4,1.9-0.4c0.6,0,1.1,0.2,1.5,0.5c0.4,0.4,0.6,0.9,0.6,1.6v20.6 c0,0.4-0.2,0.7-0.6,1c-0.4,0.2-0.9,0.4-1.5,0.4c-0.6,0-1.1-0.1-1.5-0.4c-0.4-0.2-0.6-0.6-0.6-1V43.9l-3.9,6.9 c-0.3,0.6-0.8,0.9-1.4,0.9c-0.6,0-1.1-0.3-1.4-0.9l-3.8-7.1v14.4c0,0.4-0.2,0.7-0.6,1c-0.4,0.2-0.9,0.4-1.5,0.4 c-0.6,0-1.1-0.1-1.5-0.4C103.2,58.8,103,58.5,103,58.1"/>
    <path class="st1" d="M103.7,133.8v-9.2c0-2.6,0.7-4.5,2.1-5.7c1.4-1.2,3.2-1.8,5.5-1.8c2.3,0,4.2,0.6,5.7,1.7 c1.5,1.1,2.2,2.7,2.2,4.5c0,0.8-0.2,1.4-0.5,1.7c-0.3,0.3-0.9,0.4-1.6,0.4c-1.4,0-2.1-0.4-2.1-1.4c0-0.3,0-0.5-0.1-0.7 c0-0.2-0.1-0.5-0.3-0.8c-0.1-0.3-0.3-0.6-0.5-0.9c-0.2-0.2-0.5-0.4-1-0.6c-0.4-0.2-1-0.2-1.6-0.2c-2.3,0-3.5,1.3-3.5,3.8v9.2 c0,2.5,1.2,3.8,3.5,3.8c0.7,0,1.3-0.1,1.8-0.3c0.5-0.2,0.8-0.5,1-0.9c0.2-0.4,0.4-0.8,0.4-1.1c0.1-0.3,0.1-0.7,0.1-1.2 c0.1-0.9,0.8-1.4,2.1-1.4c0.8,0,1.3,0.1,1.7,0.4c0.3,0.3,0.5,0.9,0.5,1.7c0,2-0.7,3.6-2.2,4.7c-1.5,1.2-3.4,1.8-5.7,1.8 c-2.3,0-4.1-0.6-5.5-1.8C104.4,138.3,103.7,136.4,103.7,133.8"/>
    <path class="st1" d="M132,132.8h5.6l-2.7-9.2L132,132.8z M125.5,139.5c0,0,0-0.2,0.1-0.4l6.4-20.7c0.1-0.4,0.5-0.7,1-1 c0.5-0.2,1.1-0.3,1.8-0.3c0.7,0,1.3,0.1,1.8,0.4c0.5,0.3,0.9,0.6,1,1.1l6.4,20.7c0,0.2,0.1,0.3,0.1,0.3c0,0.5-0.3,0.9-0.9,1.3 c-0.6,0.4-1.2,0.5-1.8,0.5c-0.8,0-1.3-0.3-1.5-0.9l-1.3-4.4h-7.4l-1.3,4.4c-0.2,0.6-0.5,0.9-1.5,0.9c-0.7,0-1.3-0.3-1.9-0.6 C125.8,140.5,125.5,140,125.5,139.5"/>
  </g>
</svg>